<svg id="icon" xmlns="http://www.w3.org/2000/svg" viewBox="0 0 150 150">
  <path d="M127.1 60.87c-.4-1.51-.87-3-1.4-4.43a54.41 54.41 0 0 0-5.94-11.62c-1-1.43-2-2.82-3.11-4.15s-2.26-2.61-3.48-3.83a54 54 0 0 0-76.34 0q-1.83 1.83-3.48 3.83c-1.1 1.33-2.14 2.72-3.11 4.15a55.35 55.35 0 0 0-3.89 6.78c-.76 1.57-1.44 3.19-2.05 4.84a54 54 0 0 0 88.87 56.73c1.22-1.23 2.38-2.5 3.48-3.84s2.14-2.72 3.11-4.15a54.41 54.41 0 0 0 5.94-11.62c.53-1.45 1-2.92 1.4-4.43a54.32 54.32 0 0 0 0-28.26ZM96.2 94.15a9.65 9.65 0 0 1-.6 2 10.31 10.31 0 0 1-2.26 3.38L90.81 102a5.35 5.35 0 0 0-1.38 2.39c-.34 1.27-.61 2.55-1.07 3.77l-3.51 9.47a43.81 43.81 0 0 1-9.85 1.14v-5.2c.38-2.82-1.71-8.1-5.06-11.45a7.15 7.15 0 0 1-2.09-5.06v-7.15a7.13 7.13 0 0 0-3.68-6.25c-3.21-1.78-7.78-4.26-10.91-5.83A32.9 32.9 0 0 1 46.14 73l-.14-.2a25.43 25.43 0 0 1-4-4.63c-2-2.81-5-7.25-7.18-10.51a44 44 0 0 1 23.53-23.14l4.27 2.14a3.58 3.58 0 0 0 5.18-3.2v-1.63a43.52 43.52 0 0 1 6.3-.58l5.47 5.47a3.57 3.57 0 0 1 0 5.06l-1 1-2.31 2.31a1.8 1.8 0 0 0 0 2.53l1.05 1.05a1.79 1.79 0 0 1 0 2.53L75.47 53a1.65 1.65 0 0 1-.58.39 1.76 1.76 0 0 1-.68.14h-2a1.83 1.83 0 0 0-1.25.5l-2.21 2.16a1.77 1.77 0 0 0-.52 1 1.75 1.75 0 0 0 0 .56 1.68 1.68 0 0 0 .16.54l3.49 7a1.79 1.79 0 0 1-1.6 2.59H69a1.79 1.79 0 0 1-1.17-.44l-2.08-1.8a3 3 0 0 0-.75-.54 3.32 3.32 0 0 0-.87-.3 3.56 3.56 0 0 0-.92-.06 4.06 4.06 0 0 0-.91.17l-7 2.33a1.88 1.88 0 0 0-.39.16 2.56 2.56 0 0 0-.35.22 2.69 2.69 0 0 0-.32.27l-.27.32a2.5 2.5 0 0 0-.21.35 2.14 2.14 0 0 0-.16.39 2.51 2.51 0 0 0-.13.82A2.67 2.67 0 0 0 55 72.16l2.47 1.24a15.19 15.19 0 0 0 6.76 1.6c2.35 0 5 6.09 7.15 7.15h14.91a7.17 7.17 0 0 1 5.06 2.09l3.06 3.06a6.88 6.88 0 0 1 .84 1 6.69 6.69 0 0 1 .63 1.18 7 7 0 0 1 .39 1.28 6.59 6.59 0 0 1 .13 1.33 10.66 10.66 0 0 1-.2 2.06Zm22.22-13.65-5.71-1.42a5.4 5.4 0 0 1-3.16-2.23l-4-6a7.51 7.51 0 0 1-.39-.68 6.61 6.61 0 0 1-.28-.74 5 5 0 0 1-.17-.77 5.12 5.12 0 0 1-.06-.78 5.25 5.25 0 0 1 .06-.79 4.91 4.91 0 0 1 .17-.76 5.94 5.94 0 0 1 .28-.74 7.69 7.69 0 0 1 .39-.69l4.38-6.56a5.31 5.31 0 0 1 2.07-1.85l2.16-1.08A43.56 43.56 0 0 1 118.77 75a45.37 45.37 0 0 1-.35 5.5Z"/>
</svg>
